<mxfile host="65bd71144e">
    <diagram id="XRird6-00bQ3xUtKtYhF" name="第 1 页">
        <mxGraphModel dx="1183" dy="587" grid="1" gridSize="10" guides="1" tooltips="1" connect="1" arrows="1" fold="1" page="1" pageScale="1" pageWidth="827" pageHeight="1169" math="0" shadow="0">
            <root>
                <mxCell id="0"/>
                <mxCell id="1" parent="0"/>
                <mxCell id="2" value="" style="rounded=1;whiteSpace=wrap;html=1;fillColor=default;" parent="1" vertex="1">
                    <mxGeometry x="19" y="110" width="801" height="280" as="geometry"/>
                </mxCell>
                <mxCell id="3" value="" style="edgeStyle=none;shape=flexArrow;html=1;" parent="1" source="4" edge="1">
                    <mxGeometry relative="1" as="geometry">
                        <mxPoint x="435" y="314" as="targetPoint"/>
                    </mxGeometry>
                </mxCell>
                <mxCell id="4" value="逻辑处理" style="rounded=0;whiteSpace=wrap;html=1;" parent="1" vertex="1">
                    <mxGeometry x="229" y="284" width="120" height="60" as="geometry"/>
                </mxCell>
                <mxCell id="5" value="向后端产生指令" style="rounded=0;whiteSpace=wrap;html=1;" parent="1" vertex="1">
                    <mxGeometry x="435" y="282" width="120" height="60" as="geometry"/>
                </mxCell>
                <mxCell id="6" value="后端进行指令处理" style="rounded=0;whiteSpace=wrap;html=1;" parent="1" vertex="1">
                    <mxGeometry x="653" y="282" width="120" height="60" as="geometry"/>
                </mxCell>
                <mxCell id="8" value="&lt;font style=&quot;font-size: 18px;&quot;&gt;&lt;b&gt;客户端&lt;/b&gt;&lt;/font&gt;" style="text;strokeColor=none;align=center;fillColor=none;html=1;verticalAlign=middle;whiteSpace=wrap;rounded=0;" parent="1" vertex="1">
                    <mxGeometry x="370" y="50" width="126" height="54" as="geometry"/>
                </mxCell>
                <mxCell id="9" value="" style="edgeStyle=none;shape=flexArrow;html=1;" parent="1" edge="1">
                    <mxGeometry relative="1" as="geometry">
                        <mxPoint x="650" y="313.6399999999999" as="targetPoint"/>
                        <mxPoint x="555" y="313.6400000000001" as="sourcePoint"/>
                    </mxGeometry>
                </mxCell>
                <mxCell id="55" value="" style="edgeStyle=none;shape=flexArrow;html=1;" parent="1" edge="1">
                    <mxGeometry relative="1" as="geometry">
                        <mxPoint x="689" y="422" as="targetPoint"/>
                        <mxPoint x="689" y="342.0000000000001" as="sourcePoint"/>
                    </mxGeometry>
                </mxCell>
                <mxCell id="56" value="前端进行数据处理" style="rounded=0;whiteSpace=wrap;html=1;" parent="1" vertex="1">
                    <mxGeometry x="370" y="140" width="120" height="60" as="geometry"/>
                </mxCell>
                <mxCell id="57" value="" style="edgeStyle=none;shape=flexArrow;html=1;" parent="1" edge="1">
                    <mxGeometry relative="1" as="geometry">
                        <mxPoint x="729" y="340" as="targetPoint"/>
                        <mxPoint x="729" y="420.0000000000001" as="sourcePoint"/>
                    </mxGeometry>
                </mxCell>
                <mxCell id="58" value="mysql数据库" style="rounded=0;whiteSpace=wrap;html=1;" parent="1" vertex="1">
                    <mxGeometry x="653" y="420" width="120" height="60" as="geometry"/>
                </mxCell>
                <mxCell id="60" value="" style="edgeStyle=none;shape=flexArrow;html=1;entryX=1;entryY=0.5;entryDx=0;entryDy=0;" parent="1" target="56" edge="1">
                    <mxGeometry relative="1" as="geometry">
                        <mxPoint x="569" y="180" as="targetPoint"/>
                        <mxPoint x="709" y="270" as="sourcePoint"/>
                    </mxGeometry>
                </mxCell>
                <mxCell id="61" value="&lt;font style=&quot;font-size: 12px;&quot;&gt;传递数据&lt;/font&gt;" style="text;strokeColor=none;align=center;fillColor=none;html=1;verticalAlign=middle;whiteSpace=wrap;rounded=0;" parent="1" vertex="1">
                    <mxGeometry x="593" y="190" width="60" height="20" as="geometry"/>
                </mxCell>
                <mxCell id="62" value="" style="edgeStyle=none;shape=flexArrow;html=1;exitX=0;exitY=0.5;exitDx=0;exitDy=0;" parent="1" source="56" edge="1">
                    <mxGeometry relative="1" as="geometry">
                        <mxPoint x="99" y="270" as="targetPoint"/>
                        <mxPoint x="419" y="170" as="sourcePoint"/>
                    </mxGeometry>
                </mxCell>
                <mxCell id="63" value="客户端" style="rounded=0;whiteSpace=wrap;html=1;" parent="1" vertex="1">
                    <mxGeometry x="29" y="282" width="120" height="60" as="geometry"/>
                </mxCell>
                <mxCell id="65" value="" style="edgeStyle=none;shape=flexArrow;html=1;" parent="1" edge="1">
                    <mxGeometry relative="1" as="geometry">
                        <mxPoint x="229" y="314" as="targetPoint"/>
                        <mxPoint x="149" y="314" as="sourcePoint"/>
                    </mxGeometry>
                </mxCell>
                <mxCell id="66" value="发出请求" style="text;strokeColor=none;align=center;fillColor=none;html=1;verticalAlign=middle;whiteSpace=wrap;rounded=0;" parent="1" vertex="1">
                    <mxGeometry x="159" y="282" width="60" height="20" as="geometry"/>
                </mxCell>
                <mxCell id="68" value="&lt;font style=&quot;font-size: 12px;&quot;&gt;处理后的数据显示给客户端&lt;/font&gt;" style="text;strokeColor=none;align=center;fillColor=none;html=1;verticalAlign=middle;whiteSpace=wrap;rounded=0;" parent="1" vertex="1">
                    <mxGeometry x="169" y="160" width="90" height="40" as="geometry"/>
                </mxCell>
            </root>
        </mxGraphModel>
    </diagram>
</mxfile>